
    <svg
      xmlns="http://www.w3.org/2000/svg"
      width="592.177"
      height="1282.736"
      version="1.1"
      viewBox="0 0 592.177 1282.736"
    >
      <g transform="matrix(1.33333 0 0 -1.33333 -5263.104 3257.863)">
        <g transform="matrix(.1 0 0 .1 -1.588 -13.76)">
          <g transform="matrix(2.1953 0 0 1.07738 5926.514 11309.177)">
            <path
              fill="#b9c1c7"
              fillOpacity="1"
              fillRule="nonzero"
              stroke="none"
              d="M15958.5 10052.6v-5092l62.5-285.98 13.2-60.17 58.5-268.76 14.9-68.1 56.8-260.51 14.9-68.42 56.9-260.51 14.9-68.42 48.9-223.79v6656.66h-341.5"
            ></path>
          </g>
          <g transform="matrix(2.24164 0 0 1.1027 5926.514 11283.759)">
            <path
              fill="#abb2b8"
              fillOpacity="1"
              fillRule="nonzero"
              stroke="none"
              d="M16032.3 3643.32l61.9 283.63 16.2 74.14 62.1 283.59 15.9 74.14 62.1 283.59 16.2 74.14 30.8 141.5v204.94l2.5 4781.77h-336.9V3325.74l53 243.44 16.2 74.14"
            ></path>
          </g>
          <g transform="translate(5926.514 71.16) scale(2.24129)">
            <path
              fill="#878787"
              fillOpacity="1"
              fillRule="nonzero"
              stroke="none"
              d="M15631 9214.25l669 160.6v70.27l-669-160.61v-70.26"
            ></path>
          </g>
          <g transform="translate(5926.514 71.16) scale(2.24129)">
            <path
              fill="#878787"
              fillOpacity="1"
              fillRule="nonzero"
              stroke="none"
              d="M16300 9009.61l-669-160.59v70.27l669 160.59v-70.27"
            ></path>
          </g>
          <g transform="translate(5926.514 71.16) scale(2.24129)">
            <path
              fill="#878787"
              fillOpacity="1"
              fillRule="nonzero"
              stroke="none"
              d="M15631 8484.09l669 160.58v70.27l-669-160.57v-70.28"
            ></path>
          </g>
          <g transform="translate(5926.514 71.16) scale(2.24129)">
            <path
              fill="#878787"
              fillOpacity="1"
              fillRule="nonzero"
              stroke="none"
              d="M16300 8279.43l-669-160.62v70.28l669 160.62v-70.28"
            ></path>
          </g>
          <g transform="translate(5926.514 71.16) scale(2.24129)">
            <path
              fill="#878787"
              fillOpacity="1"
              fillRule="nonzero"
              stroke="none"
              d="M16300 7984.78v-70.27l-669-160.58v70.23l669 160.62"
            ></path>
          </g>
          <g transform="translate(5926.514 71.16) scale(2.24129)">
            <path
              fill="#878787"
              fillOpacity="1"
              fillRule="nonzero"
              stroke="none"
              d="M16300 7549.27l-669-160.62v70.27l669 160.63v-70.28"
            ></path>
          </g>
          <g transform="matrix(3.69037 0 0 2.356 -17882.386 6718.608)">
            <path
              fill="#878787"
              fillOpacity="1"
              fillRule="nonzero"
              stroke="none"
              d="M16307.697 4046.8l-24.097-73.63-245.463-85.657-16.327 57.98"
            ></path>
          </g>
          <g transform="translate(5926.551 71.107) scale(2.33153)">
            <path
              fill="#b9c0c7"
              fillOpacity="1"
              fillRule="nonzero"
              stroke="none"
              d="M16300 10462.7c0-11.5-1.2-23.3-3.4-35.4-12.5-70.4-62.3-145.4-140.7-212.3-26.8-22.7-56.6-44.8-90-65.1-188.748-116.465-392.067-375.832-388.51-442.29 2.264-42.312-7.868-97.442-7.99-145.05 0-32.37-.3-65.05-.3-97.42H15026c-.3 32.37-.3 65.05-.6 97.42-.236 78.759-.232 82.78-15.271 160.142-16.869 86.772-142.608 184.548-213.014 252.015-52.87 50.663-124.316 96.698-174.993 162.264-33.3 20.3-56.222 54.919-82.922 78.019-91.8 77.8-144.1 167.4-144.1 247.7v1c0 15.9 1.8 30.2 5.2 43.9h1894.4c.7-2.5 1.3-5 1.9-7.8 2.2-11.5 3.4-24 3.4-37.1"
            ></path>
          </g>
          <g transform="translate(5926.551 71.107) scale(2.31092)">
            <path
              fill="#9aa1a6"
              fillOpacity="1"
              fillRule="nonzero"
              stroke="none"
              d="M15484.4 9549.56h324.5c0 32.67.3 65.64.3 98.3.6 235.53 160.8 445.04 400.1 592.64 33.6 20.4 63.7 42.7 90.7 65.6h-815.6v-756.54"
            ></path>
          </g>
          <g transform="translate(5926.551 71.107) scale(2.31093)">
            <path
              fill="#abb2b8"
              fillOpacity="1"
              fillRule="nonzero"
              stroke="none"
              d="M15811.4 9694.04c4.967 53.813 22.108 135.49 53.029 180.166 40.91 59.108 72.795 95.258 134.541 159.853 66.585 69.656 136.306 116.948 205.007 175.917 5.474 5.768 120.505 109.936 181.489 189.016 21.57 27.97 42.882 62.346 50.145 90.772 13.816 54.071-1.811 103.688 7.259 111.381l-964.872.847 6.402-1052.412h326.9l.1 144.46"
            ></path>
          </g>
        </g>
      </g>
    </svg>
