<?xml version="1.0" encoding="UTF-8" standalone="no"?>
<!-- Created with Inkscape (http://www.inkscape.org/) -->

<svg
   width="210mm"
   height="297mm"
   viewBox="0 0 210 297"
   version="1.1"
   id="svg13216"
   inkscape:version="1.2.1 (9c6d41e, 2022-07-14)"
   sodipodi:docname="robot.svg"
   xmlns:inkscape="http://www.inkscape.org/namespaces/inkscape"
   xmlns:sodipodi="http://sodipodi.sourceforge.net/DTD/sodipodi-0.dtd"
   xmlns="http://www.w3.org/2000/svg"
   xmlns:svg="http://www.w3.org/2000/svg">
  <sodipodi:namedview
     id="namedview13218"
     pagecolor="#ffffff"
     bordercolor="#000000"
     borderopacity="0.25"
     inkscape:showpageshadow="2"
     inkscape:pageopacity="0.0"
     inkscape:pagecheckerboard="0"
     inkscape:deskcolor="#d1d1d1"
     inkscape:document-units="mm"
     showgrid="false"
     inkscape:zoom="1.1023743"
     inkscape:cx="249.00798"
     inkscape:cy="377.82085"
     inkscape:window-width="1848"
     inkscape:window-height="1016"
     inkscape:window-x="1992"
     inkscape:window-y="27"
     inkscape:window-maximized="1"
     inkscape:current-layer="layer1" />
  <defs
     id="defs13213" />
  <g
     inkscape:label="Layer 1"
     inkscape:groupmode="layer"
     id="layer1">
    <rect
       style="fill:#9aa1a6;stroke:#000000;stroke-width:1.16;stroke-dasharray:none;stroke-opacity:1"
       id="rect13752"
       width="56.206841"
       height="40.431892"
       x="75.120598"
       y="56.926216"
       ry="0"
       rx="0" />
    <rect
       style="fill:#9aa1a6;stroke:#000000;stroke-width:1.16;stroke-dasharray:none;stroke-opacity:1"
       id="rect13752-4"
       width="56.960621"
       height="11.295404"
       x="75.102814"
       y="101.01452"
       ry="0.6907686"
       rx="0" />
    <path
       style="fill:#9aa1a6;fill-opacity:1;stroke:#000000;stroke-width:1.165;stroke-dasharray:none;stroke-opacity:1"
       d="m 132.42456,96.990586 13.6794,-7.335177 -1.27156,-36.793712 -12.41429,3.91328 z"
       id="path16091"
       sodipodi:nodetypes="ccccc" />
    <path
       style="fill:#9aa1a6;fill-opacity:1;stroke:#000000;stroke-width:1.165;stroke-dasharray:none;stroke-opacity:1"
       d="m 133.11545,111.76349 13.20383,-10.55156 -0.18191,-11.253255 -12.90906,10.783475 z"
       id="path16091-8"
       sodipodi:nodetypes="ccccc" />
    <path
       style="fill:#9aa1a6;fill-opacity:1;stroke:#000000;stroke-width:1.165;stroke-dasharray:none;stroke-opacity:1"
       d="m 75.180799,56.165878 10.56404,-4.410146 58.326571,0.372922 -12.34719,4.050296 z"
       id="path16093"
       sodipodi:nodetypes="ccccc" />
    <rect
       style="fill:#00ff7f;fill-opacity:1;stroke:#000000;stroke-width:1.5;stroke-dasharray:none;stroke-opacity:1;paint-order:markers fill stroke"
       id="rect16149"
       width="47.404293"
       height="17.508406"
       x="79.301323"
       y="64.115738"
       ry="0.6907686" />
    <ellipse
       style="fill:#000000;fill-opacity:1;stroke:#000000;stroke-width:1.16;stroke-dasharray:none;stroke-opacity:1"
       id="path16359"
       cx="92.13459"
       cy="72.234535"
       rx="1.7428721"
       ry="1.8438233" />
    <ellipse
       style="fill:#000000;fill-opacity:1;stroke:#000000;stroke-width:1.16;stroke-dasharray:none;stroke-opacity:1"
       id="path16361"
       cx="115.07951"
       cy="76.225525"
       rx="1.9297371"
       ry="1.7933606" />
    <path
       style="fill:none;fill-opacity:1;stroke:#000000;stroke-width:1.5;stroke-dasharray:none;stroke-opacity:1;paint-order:markers fill stroke"
       d="m 119.53033,71.785514 -8.90335,-0.09915"
       id="path16476" />
    <path
       style="fill:none;fill-opacity:1;stroke:#000000;stroke-width:1.5;stroke-linecap:round;stroke-linejoin:round;stroke-dasharray:none;stroke-opacity:1;paint-order:markers fill stroke"
       d="m 87.600629,68.551671 c 0.163735,0.01865 0.219253,-0.354627 0.339731,-0.434944 0.03721,-0.02482 0.09317,-0.02424 0.120007,-0.06 0.03795,-0.0506 0.02508,-0.127283 0.06,-0.180009 0.0109,-0.01646 0.03951,0 0.05926,0 0.01976,-0.01976 0.04684,-0.03424 0.05927,-0.05926 0.0177,-0.0356 -0.02717,-0.09024 0,-0.119253 0.09313,-0.09944 0.125659,-0.07966 0.21643,-0.162555 0.07749,-0.07077 0.07025,-0.127394 0.118512,-0.17567 0.0267,-0.0267 0.08676,0.02688 0.113281,0 0.02484,-0.02519 0.01529,-0.07336 0.04064,-0.09806 0.01431,-0.01397 0.04209,0.0089 0.06,0 0.104859,-0.05211 0.191656,-0.185113 0.299267,-0.239276 0.07521,-0.03785 0.228402,-0.04992 0.296955,-0.118475 0.01413,-0.01413 -0.01415,-0.04586 0,-0.06 0.215593,-0.215596 0.04087,0.0048 0.179261,-0.06 0.04891,-0.02291 0.06503,-0.0961 0.116432,-0.112689 0.0571,-0.01844 0.137316,0.04216 0.18001,0 0.01405,-0.01389 -0.01262,-0.04407 0,-0.05926 2.3e-5,-2.9e-5 0.0984,2.9e-5 0.09846,0 0.182134,-0.09881 0.307401,-0.165028 0.517189,-0.23496 0.0331,-0.01103 0.152101,0.0236 0.175702,0 0.01347,-0.01347 -0.0172,-0.04897 0,-0.05717 0.05911,-0.02816 0.252339,0.04543 0.297775,0 0.01397,-0.01397 -0.0177,-0.05051 0,-0.05926 0.04877,-0.02408 0.294654,0.04347 0.333254,0 0.01228,-0.01384 -0.01675,-0.04765 0,-0.0555 0.01296,-0.0061 0.213018,0.0057 0.229833,0 0.02553,-0.0087 0.03296,-0.04537 0.05719,-0.05719 0.206087,-0.10057 0.541393,0.076 0.759839,0 0.05422,-0.01886 0.408056,-0.133577 0.474003,-0.05923 0.0123,0.01387 -0.01677,0.04772 0,0.05559 0.111279,0.05221 0.301072,-0.05474 0.411012,0 0.01707,0.0085 -0.01704,0.04863 0,0.05715 0.07529,0.03764 0.192828,-0.0199 0.352123,0.05925 0.04605,0.02289 0.199009,-0.0361 0.23512,0 0.118089,0.118073 0.379677,0.191746 0.558411,0.26928 0.117152,0.05082 0.189105,0.17304 0.323966,0.220231 0.06635,0.02323 0.178036,0.01013 0.227137,0.05924 0.01397,0.01397 -0.01767,0.05042 0,0.05926 0.03533,0.01767 0.08326,-0.01783 0.118496,0 0.01783,0.009 -0.01405,0.04577 0,0.06 0.01979,0.02006 0.156827,0.03584 0.177814,0.0555 0.13621,0.12762 -0.218485,-0.02408 0.05923,0.114814 0.03471,0.01736 0.087,-0.02529 0.116429,0 0.01791,0.0154 0.104601,0.135464 0.114367,0.155477 0.01712,0.03509 -0.02761,0.08954 0,0.117149 0.0016,0.0016 0.167431,0.111152 0.171513,0.113261 0.275775,0.142433 -0.07474,-0.01487 0.05924,0.114405 0.03651,0.03522 0.201303,0.08457 0.236411,0.119238 0.124296,0.122745 -0.183819,-0.0051 0.0555,0.118506 0.102449,0.05291 0.323996,0.155946 0.402341,0.236183 0.01146,0.01175 -0.01262,0.03873 0,0.04921 0.01519,0.01262 0.04528,-0.01397 0.05924,0 0.01397,0.01397 -0.01349,0.04484 0,0.05927 0.01262,0.01349 0.04163,-0.01228 0.05546,0 0.0208,0.01844 -0.02349,0.06856 0,0.08339 0.09454,0.05964 0.09992,0.179338 0.182821,0.223446"
       id="path16478" />
  </g>
</svg>
