<svg
      xmlns="http://www.w3.org/2000/svg"
      width="210mm"
      height="297mm"
      version="1.1"
      viewBox="0 0 210 297"
    >
      <g strokeLinecap="round" paintOrder="markers fill stroke">
        <path
          fill="#999"
          stroke="none"
          strokeLinejoin="round"
          strokeWidth="2.093"
          d="M77.758 57.295c-11.555 3.62-11.58 36.306 0 39.83 16.212 4.934 32.583 3.54 50.783 0 11.925-2.319 13.665-35.777 2.233-39.213-15.488-4.654-37.286-5.545-53.016-.617z"
        ></path>
        <path
          fill="#4f4e4b"
          fillOpacity="1"
          stroke="#000"
          strokeDasharray="none"
          strokeLinejoin="round"
          strokeWidth="0"
          d="M82.832 63.196c-9.401 2.586-9.421 25.932 0 28.449 13.191 3.524 26.51 2.528 41.32 0 9.702-1.656 11.119-25.554 1.816-28.008-12.6-3.324-30.337-3.96-43.136-.44z"
        ></path>
        <path
          fill="#4f4e4b"
          fillOpacity="1"
          stroke="none"
          strokeDasharray="none"
          strokeLinejoin="round"
          strokeOpacity="1"
          strokeWidth="0"
          d="M137.679 68.666s.572 3.686.626 5.545a46.11 46.11 0 01-.402 7.495c-.24 1.787-1.149 5.286-1.149 5.286s5.093-.172 6.596-2.03c1.541-1.907 2.634-3.396 2.643-7.774.007-3.754-.655-6.018-2.767-7.61-2.003-1.51-5.547-.912-5.547-.912z"
        ></path>
        <path
          fill="#4f4e4b"
          fillOpacity="1"
          stroke="none"
          strokeDasharray="none"
          strokeLinejoin="round"
          strokeOpacity="1"
          strokeWidth="0"
          d="M70.17 67.871s-.773 3.65-.93 5.503a46.113 46.113 0 00-.01 7.505c.142 1.798.857 5.342.857 5.342s-5.076-.452-6.474-2.39c-1.434-1.989-2.444-3.535-2.212-7.907.199-3.75.985-5.973 3.18-7.447 2.083-1.398 5.59-.606 5.59-.606z"
        ></path>
        <path
          fill="#4f4e4b"
          fillOpacity="1"
          stroke="#4f4e4b"
          strokeDasharray="none"
          strokeLinejoin="round"
          strokeOpacity="1"
          strokeWidth="0.67"
          d="M95.542 54.063L85.195 36.62"
        ></path>
        <path
          fill="#4f4e4b"
          fillOpacity="1"
          stroke="#4f4e4b"
          strokeDasharray="none"
          strokeLinejoin="round"
          strokeOpacity="1"
          strokeWidth="0.67"
          d="M109.228 54.328l10.348-17.442"
        ></path>
        <ellipse
          cx="84.516"
          cy="34.999"
          fill="#4f4e4b"
          fillOpacity="1"
          stroke="#4f4e4b"
          strokeDasharray="none"
          strokeLinejoin="round"
          strokeOpacity="1"
          strokeWidth="0.813"
          rx="1.609"
          ry="1.661"
        ></ellipse>
        <ellipse
          cx="120.237"
          cy="35.557"
          fill="#4f4e4b"
          fillOpacity="1"
          stroke="#4f4e4b"
          strokeDasharray="none"
          strokeLinejoin="round"
          strokeOpacity="1"
          strokeWidth="0.813"
          rx="1.609"
          ry="1.661"
        ></ellipse>
        <path
          fill="none"
          fillOpacity="1"
          stroke="#f7ffff"
          strokeDasharray="none"
          strokeLinejoin="miter"
          strokeOpacity="1"
          strokeWidth="1"
          d="M114.692 82.415a11.712 5.814 0 01-11.605 5.814 11.712 5.814 0 01-11.818-5.707"
        ></path>
        <path
          fill="none"
          fillOpacity="1"
          stroke="#f7ffff"
          strokeDasharray="none"
          strokeLinejoin="miter"
          strokeOpacity="1"
          strokeWidth="0.539"
          d="M99.194 70.816a5.051 3.915 0 00-5.048-3.414 5.051 3.915 0 00-4.98 3.473"
        ></path>
        <path
          fill="none"
          fillOpacity="1"
          stroke="#f7ffff"
          strokeDasharray="none"
          strokeLinejoin="miter"
          strokeOpacity="1"
          strokeWidth="0.539"
          d="M107.691 70.911a3.915 5.051 90 014.934-3.498 3.915 5.051 90 015.09 3.362"
        ></path>
        <ellipse
          cx="76.061"
          cy="106.167"
          fill="none"
          fillOpacity="1"
          stroke="#f7ffff"
          strokeDasharray="none"
          strokeLinejoin="miter"
          strokeOpacity="1"
          strokeWidth="1"
          rx="1.724"
          ry="0.701"
        ></ellipse>
      </g>
    </svg>