
    <svg
      xmlns="http://www.w3.org/2000/svg"
      width="690.955"
      height="1298.028"
      version="1.1"
      viewBox="0 0 690.955 1298.028"
    >
      <g transform="matrix(1.33333 0 0 -1.33333 -4426.899 3262.79)">
        <g transform="matrix(.1 0 0 .1 -1.588 -13.76)">
          <g transform="matrix(2.72044 0 0 1.22405 -5943.387 9563.172)">
            <path
              fill="#d9e1eb"
              fillOpacity="1"
              fillRule="nonzero"
              stroke="none"
              d="M16300 10507.6V10215h-1904.9v292.6H16300"
            ></path>
          </g>
          <g transform="matrix(2.1953 0 0 1.07797 2.565 11229.423)">
            <path
              fill="#b9c1c7"
              fillOpacity="1"
              fillRule="nonzero"
              stroke="none"
              d="M15958.5 10052.6v-5092l62.5-285.98 13.2-60.17 58.5-268.76 14.9-68.1 56.8-260.51 14.9-68.42 56.9-260.51 14.9-68.42 48.9-223.79v6656.66h-341.5"
            ></path>
          </g>
          <g transform="matrix(2.24164 0 0 1.1033 2.565 11203.991)">
            <path
              fill="#abb2b8"
              fillOpacity="1"
              fillRule="nonzero"
              stroke="none"
              d="M16032.3 3643.32l61.9 283.63 16.2 74.14 62.1 283.59 15.9 74.14 62.1 283.59 16.2 74.14 30.8 141.5v204.94l2.5 4781.77h-336.9V3325.74l53 243.44 16.2 74.14"
            ></path>
          </g>
          <g transform="matrix(2.24129 0 0 2.24252 2.565 -14.78)">
            <path
              fill="#878787"
              fillOpacity="1"
              fillRule="nonzero"
              stroke="none"
              d="M15631 9214.25l669 160.6v70.27l-669-160.61v-70.26"
            ></path>
          </g>
          <g transform="matrix(2.24129 0 0 2.24252 2.565 -14.78)">
            <path
              fill="#878787"
              fillOpacity="1"
              fillRule="nonzero"
              stroke="none"
              d="M16300 9009.61l-669-160.59v70.27l669 160.59v-70.27"
            ></path>
          </g>
          <g transform="matrix(2.24129 0 0 2.24252 2.565 -14.78)">
            <path
              fill="#878787"
              fillOpacity="1"
              fillRule="nonzero"
              stroke="none"
              d="M15631 8484.09l669 160.58v70.27l-669-160.57v-70.28"
            ></path>
          </g>
          <g transform="matrix(2.24129 0 0 2.24252 2.565 -14.78)">
            <path
              fill="#878787"
              fillOpacity="1"
              fillRule="nonzero"
              stroke="none"
              d="M16300 8279.43l-669-160.62v70.28l669 160.62v-70.28"
            ></path>
          </g>
          <g transform="matrix(2.24129 0 0 2.24252 2.565 -14.78)">
            <path
              fill="#878787"
              fillOpacity="1"
              fillRule="nonzero"
              stroke="none"
              d="M16300 7984.78v-70.27l-669-160.58v70.23l669 160.62"
            ></path>
          </g>
          <g transform="matrix(2.24129 0 0 2.24252 2.565 -14.78)">
            <path
              fill="#878787"
              fillOpacity="1"
              fillRule="nonzero"
              stroke="none"
              d="M16300 7549.27l-669-160.62v70.27l669 160.63v-70.28"
            ></path>
          </g>
          <g transform="matrix(3.69037 0 0 2.3573 -23806.335 6636.327)">
            <path
              fill="#878787"
              fillOpacity="1"
              fillRule="nonzero"
              stroke="none"
              d="M16307.697 4046.8l-24.097-73.63-245.463-85.657-16.327 57.98"
            ></path>
          </g>
          <g transform="translate(15639.795 1694.625) scale(1.40576)">
            <path
              fill="#abb2b8"
              fillOpacity="1"
              fillRule="nonzero"
              stroke="none"
              d="M15794.3 14744.3h-2950.4v1140.8c0 229.2 185.7 414.9 414.9 414.9h2120.6c229.1 0 414.9-185.7 414.9-414.9v-1140.8"
            ></path>
          </g>
          <g transform="translate(15639.795 1694.625) scale(1.40576)">
            <path
              fill="#d9e1eb"
              fillOpacity="1"
              fillRule="nonzero"
              stroke="none"
              d="M13651.7 16300h-421c-213.6 0-386.8-199.3-386.8-445.1v-1110.6h807.8V16300"
            ></path>
          </g>
          <g transform="translate(15639.795 1694.625) scale(1.40576)">
            <path
              fill="#9aa1a6"
              fillOpacity="1"
              fillRule="nonzero"
              stroke="none"
              d="M15407.4 16300h-420.9v-1555.7h807.8v1110.6c0 245.8-173.2 445.1-386.9 445.1"
            ></path>
          </g>
          <g transform="translate(15639.795 1694.625) scale(1.40576)">
            <path
              fill="#b9c0c7"
              fillOpacity="1"
              fillRule="nonzero"
              stroke="none"
              d="M14986.5 14744.3h-1334.8V16300h1334.8v-1555.7"
            ></path>
          </g>
        </g>
      </g>
    </svg>
